<svg xmlns="http://www.w3.org/2000/svg" xmlns:xlink="http://www.w3.org/1999/xlink" width="1500" zoomAndPan="magnify" viewBox="0 0 1125 1124.99995" height="1500" preserveAspectRatio="xMidYMid meet" version="1.0"><defs><g/><clipPath id="id1"><path d="M 18 114 L 1120 114 L 1120 1086 L 18 1086 Z M 18 114 " clip-rule="nonzero"/></clipPath><clipPath id="id2"><path d="M -124.621094 353.429688 L 1106.023438 112.550781 L 1249.371094 844.90625 L 18.722656 1085.78125 Z M -124.621094 353.429688 " clip-rule="nonzero"/></clipPath><clipPath id="id3"><path d="M -124.621094 353.429688 L 1106.023438 112.550781 L 1249.371094 844.90625 L 18.722656 1085.78125 Z M -124.621094 353.429688 " clip-rule="nonzero"/></clipPath><clipPath id="id4"><path d="M 626.738281 174.925781 L 800.738281 174.925781 L 800.738281 348.925781 L 626.738281 348.925781 Z M 626.738281 174.925781 " clip-rule="nonzero"/></clipPath></defs><g clip-path="url(#id1)"><g clip-path="url(#id2)"><g clip-path="url(#id3)"><path fill="#f4ca27" d="M 18.589844 1085.097656 C 18.589844 1085.097656 -14.988281 795.140625 536.824219 566.355469 C 1088.625 337.550781 1099.660156 114.507812 1099.660156 114.507812 C 1099.660156 114.507812 1228.015625 331.949219 837.878906 588.578125 C 447.746094 845.203125 129.9375 761.648438 18.589844 1085.097656 " fill-opacity="1" fill-rule="nonzero"/></g></g></g><g fill="#000000" fill-opacity="1"><g transform="translate(61.821439, 707.424715)"><g><path d="M 26.011719 -600.894531 C 31.214844 -600.894531 45.957031 -591.355469 45.957031 -534.128906 L 45.957031 -74.570312 C 45.957031 -18.207031 31.214844 -7.804688 26.011719 -7.804688 L 26.011719 0 L 33.816406 0 C 84.976562 0.867188 140.46875 9.539062 190.761719 9.539062 C 396.261719 9.539062 551.46875 -79.773438 551.46875 -304.347656 C 551.46875 -647.71875 166.480469 -691.941406 107.519531 -516.785156 L 107.519531 -608.699219 L 26.011719 -608.699219 Z M 490.773438 -304.347656 C 490.773438 -114.457031 379.785156 1.734375 190.761719 1.734375 C 163.878906 1.734375 136.132812 -0.867188 107.519531 -3.46875 L 107.519531 -468.230469 C 107.519531 -672.863281 490.773438 -663.324219 490.773438 -304.347656 Z M 490.773438 -304.347656 "/></g></g></g><g fill="#000000" fill-opacity="1"><g transform="translate(595.728513, 984.935962)"><g><path d="M 262.351562 -321.296875 C 371.941406 -337.070312 411.789062 -387.714844 411.789062 -454.132812 C 411.789062 -534.664062 354.503906 -591.949219 185.96875 -591.949219 C 137.816406 -591.949219 81.363281 -583.648438 32.378906 -582.816406 L 24.90625 -582.816406 L 24.90625 -575.34375 C 29.886719 -575.34375 44 -566.210938 44 -511.417969 L 44 -71.398438 C 44 -17.433594 29.886719 -7.472656 24.90625 -7.472656 L 24.90625 0 L 122.042969 0 L 122.042969 -7.472656 C 117.0625 -7.472656 102.949219 -17.433594 102.949219 -71.398438 L 102.949219 -317.144531 L 196.761719 -317.144531 L 322.957031 -98.796875 C 353.675781 -45.664062 366.128906 -7.472656 359.488281 -7.472656 L 359.488281 0 L 456.625 0 L 456.625 -7.472656 C 444.167969 -7.472656 416.773438 -54.792969 380.242188 -117.0625 Z M 102.949219 -580.328125 C 132.003906 -582.816406 160.234375 -585.308594 185.96875 -585.308594 C 258.199219 -585.308594 353.675781 -557.082031 353.675781 -454.132812 C 353.675781 -352.015625 258.199219 -323.789062 185.96875 -323.789062 L 102.949219 -323.789062 Z M 102.949219 -580.328125 "/></g></g></g><g clip-path="url(#id4)"><path fill="#f4ca27" d="M 800.726562 261.917969 C 735.480469 273.929688 725.742188 283.667969 713.734375 348.910156 C 701.722656 283.667969 691.984375 273.929688 626.738281 261.917969 C 691.984375 249.90625 701.722656 240.171875 713.734375 174.925781 C 725.742188 240.171875 735.480469 249.90625 800.726562 261.917969 Z M 800.726562 261.917969 " fill-opacity="1" fill-rule="nonzero"/></g></svg>